HIERARCHY
ROOT Root
{
	OFFSET -0.000007 0.000445 0.000000
	CHANNELS 6 Xposition Yposition Zposition Xrotation Yrotation Zrotation
	JOINT Body
	{
		OFFSET 0.000000 0.000000 2.143352
		CHANNELS 6 Xposition Yposition Zposition Xrotation Yrotation Zrotation
		JOINT Wool
		{
			OFFSET 0.000000 0.000000 1.211460
			CHANNELS 6 Xposition Yposition Zposition Xrotation Yrotation Zrotation
			End Site
			{
				OFFSET 0.000000 0.000000 1.000000
			}
		}
		JOINT Head
		{
			OFFSET 2.050163 0.000000 1.211460
			CHANNELS 6 Xposition Yposition Zposition Xrotation Yrotation Zrotation
			End Site
			{
				OFFSET 0.000000 0.000000 1.000000
			}
		}
		JOINT Tail
		{
			OFFSET -1.739532 0.000000 1.800304
			CHANNELS 6 Xposition Yposition Zposition Xrotation Yrotation Zrotation
			End Site
			{
				OFFSET 0.000000 0.000000 -1.096757
			}
		}
		JOINT Femur.BR
		{
			OFFSET -1.458411 -0.841292 0.979440
			CHANNELS 6 Xposition Yposition Zposition Xrotation Yrotation Zrotation
			JOINT Leg.BR
			{
				OFFSET 0.308560 0.000000 -0.752393
				CHANNELS 3 Xrotation Yrotation Zrotation
				End Site
				{
					OFFSET -0.667856 0.000000 -1.289117
				}
			}
		}
		JOINT Sternum.R
		{
			OFFSET 1.436668 -0.841292 1.079381
			CHANNELS 6 Xposition Yposition Zposition Xrotation Yrotation Zrotation
			JOINT Leg.FR
			{
				OFFSET -0.225208 0.000000 -0.824895
				CHANNELS 3 Xrotation Yrotation Zrotation
				End Site
				{
					OFFSET 0.310631 0.000000 -1.397838
				}
			}
		}
		JOINT Femur.BL
		{
			OFFSET -1.458411 0.827921 0.979440
			CHANNELS 6 Xposition Yposition Zposition Xrotation Yrotation Zrotation
			JOINT Leg.BL
			{
				OFFSET 0.308560 -0.000000 -0.752393
				CHANNELS 3 Xrotation Yrotation Zrotation
				End Site
				{
					OFFSET -0.667856 -0.000000 -1.289117
				}
			}
		}
		JOINT Sternum.L
		{
			OFFSET 1.436668 0.827921 1.079381
			CHANNELS 6 Xposition Yposition Zposition Xrotation Yrotation Zrotation
			JOINT Leg.FL
			{
				OFFSET -0.225208 0.000000 -0.824895
				CHANNELS 3 Xrotation Yrotation Zrotation
				End Site
				{
					OFFSET 0.310631 0.000000 -1.397838
				}
			}
		}
	}
	JOINT Leg.FR.003
	{
		OFFSET 1.522091 -0.841292 1.000000
		CHANNELS 6 Xposition Yposition Zposition Xrotation Yrotation Zrotation
		JOINT Hoof.FR
		{
			OFFSET 0.000000 0.000000 0.000000
			CHANNELS 6 Xposition Yposition Zposition Xrotation Yrotation Zrotation
			End Site
			{
				OFFSET 0.528072 0.000000 -0.947424
			}
		}
	}
	JOINT Leg.FL.001
	{
		OFFSET 1.522091 0.827921 1.000000
		CHANNELS 6 Xposition Yposition Zposition Xrotation Yrotation Zrotation
		JOINT Hoof.FL
		{
			OFFSET 0.000000 0.000000 0.000000
			CHANNELS 6 Xposition Yposition Zposition Xrotation Yrotation Zrotation
			End Site
			{
				OFFSET 0.528072 -0.000000 -0.947424
			}
		}
	}
	JOINT Leg.BR.001
	{
		OFFSET -1.817707 -0.841292 1.081282
		CHANNELS 6 Xposition Yposition Zposition Xrotation Yrotation Zrotation
		JOINT Hoof.BR
		{
			OFFSET 0.000000 0.000000 0.000000
			CHANNELS 6 Xposition Yposition Zposition Xrotation Yrotation Zrotation
			End Site
			{
				OFFSET 0.590199 0.000000 -1.040613
			}
		}
	}
	JOINT Leg.BL.001
	{
		OFFSET -1.817707 0.827921 1.081282
		CHANNELS 6 Xposition Yposition Zposition Xrotation Yrotation Zrotation
		JOINT Hoof.BL
		{
			OFFSET 0.000000 0.000000 0.000000
			CHANNELS 6 Xposition Yposition Zposition Xrotation Yrotation Zrotation
			End Site
			{
				OFFSET 0.590198 0.000000 -1.040613
			}
		}
	}
}
MOTION
Frames: 4
Frame Time: 0.041667
-0.000007 0.000445 0.000000 -0.000000 0.000000 -0.000000 0.000000 0.000634 2.172361 -0.000000 0.000000 -0.000000 0.000000 0.000000 0.866575 -0.000000 0.000000 -0.000000 2.050163 0.000000 0.950415 -0.000000 0.000000 -0.000000 -1.739532 -0.000000 1.800304 10.266151 -0.000003 0.000002 -1.458411 -0.841291 0.979440 -0.011624 2.468375 0.002146 -0.007021 -3.912045 0.003474 1.436668 -0.841292 1.079381 -0.012139 -4.676504 -0.000488 -0.006075 7.450077 -0.001191 -1.458411 0.827921 0.979440 -0.011625 2.468676 0.002146 -0.007022 -3.912537 0.003474 1.436668 0.827921 1.079381 -0.012138 -4.676652 -0.000488 -0.006073 7.450330 -0.001190 1.522091 -0.841292 1.000000 0.000000 0.000000 -0.000000 -0.000000 0.000000 0.000000 0.000000 -0.000000 -0.000000 1.522091 0.827921 1.000000 -0.000000 0.000000 0.000000 -0.000000 -0.000000 0.000000 -0.000000 0.000000 0.000000 -1.817707 -0.841292 1.081282 -0.000000 0.000000 -0.000000 0.000000 0.000000 -0.000000 0.000000 0.000000 -0.000000 -1.817707 0.827921 1.081282 -0.000000 0.000000 -0.000000 0.000000 -0.000000 -0.000000 -0.000000 0.000000 0.000000 
-0.000007 0.000445 0.000000 -0.000000 0.000000 -0.000000 0.000000 0.006303 2.172097 -0.000000 0.000000 -0.000000 0.000000 0.000000 0.866575 -0.000000 0.000000 -0.000000 2.050163 0.000000 0.945034 -0.000000 0.000000 -0.000000 -1.739532 -0.000000 1.800304 10.100380 -0.000003 0.000002 -1.458411 -0.841292 0.979440 -0.115586 2.445967 0.021329 -0.069837 -3.876453 0.034570 1.436668 -0.841292 1.079381 -0.120574 -4.628234 -0.004877 -0.060621 7.373066 -0.011860 -1.458411 0.827921 0.979440 -0.115585 2.446268 0.021328 -0.069835 -3.876946 0.034570 1.436668 0.827921 1.079381 -0.120570 -4.628216 -0.004877 -0.060621 7.373036 -0.011859 1.522091 -0.841292 1.000000 0.000000 0.000000 -0.000000 -0.000000 0.000000 0.000000 0.000000 -0.000000 -0.000000 1.522091 0.827921 1.000000 -0.000000 0.000000 0.000000 -0.000000 -0.000000 0.000000 -0.000000 0.000000 0.000000 -1.817707 -0.841292 1.081282 -0.000000 0.000000 -0.000000 0.000000 0.000000 -0.000000 0.000000 0.000000 -0.000000 -1.817707 0.827921 1.081282 -0.000000 0.000000 -0.000000 0.000000 -0.000000 -0.000000 -0.000000 0.000000 0.000000 
-0.000007 0.000445 0.000000 -0.000000 0.000000 -0.000000 0.000000 0.012691 2.171284 -0.000000 0.000000 -0.000000 0.000000 0.000000 0.866575 -0.000000 0.000000 -0.000000 2.050163 0.000000 0.940904 -0.000000 0.000000 -0.000000 -1.739532 0.000000 1.800304 9.599051 -0.000003 0.000002 -1.458411 -0.841292 0.979440 -0.232705 2.377025 0.042883 -0.140775 -3.767002 0.069777 1.436668 -0.841292 1.079381 -0.241957 -4.480599 -0.009986 -0.123477 7.137486 -0.024007 -1.458411 0.827921 0.979440 -0.232706 2.377328 0.042883 -0.140774 -3.767487 0.069776 1.436668 0.827921 1.079381 -0.241956 -4.480575 -0.009986 -0.123480 7.137450 -0.024007 1.522091 -0.841292 1.000000 0.000000 0.000000 -0.000000 -0.000000 0.000000 0.000000 0.000000 -0.000000 -0.000000 1.522091 0.827921 1.000000 -0.000000 0.000000 0.000000 -0.000000 -0.000000 0.000000 -0.000000 0.000000 0.000000 -1.817707 -0.841292 1.081282 -0.000000 0.000000 -0.000000 0.000000 0.000000 -0.000000 0.000000 0.000000 -0.000000 -1.817707 0.827921 1.081282 -0.000000 0.000000 -0.000000 0.000000 -0.000000 -0.000000 -0.000000 0.000000 0.000000 
-0.000007 0.000445 0.000000 -0.000000 0.000000 -0.000000 0.000000 0.019741 2.169898 -0.000000 0.000000 -0.000000 0.000000 0.000000 0.866575 -0.000000 0.000000 -0.000000 2.050163 0.000000 0.938009 -0.000000 0.000000 -0.000000 -1.739532 -0.000000 1.800304 8.764223 -0.000002 0.000002 -1.458411 -0.841291 0.979440 -0.361886 2.260318 0.066534 -0.219386 -3.581681 0.108981 1.436668 -0.841292 1.079381 -0.374483 -4.233443 -0.015850 -0.195345 6.743145 -0.037746 -1.458411 0.827921 0.979440 -0.361888 2.260621 0.066534 -0.219383 -3.582161 0.108980 1.436668 0.827921 1.079381 -0.374484 -4.233506 -0.015850 -0.195344 6.743255 -0.037745 1.522091 -0.841292 1.000000 0.000000 0.000000 -0.000000 -0.000000 0.000000 0.000000 0.000000 -0.000000 -0.000000 1.522091 0.827921 1.000000 -0.000000 0.000000 0.000000 -0.000000 -0.000000 0.000000 -0.000000 0.000000 0.000000 -1.817707 -0.841292 1.081282 -0.000000 0.000000 -0.000000 0.000000 0.000000 -0.000000 0.000000 0.000000 -0.000000 -1.817707 0.827921 1.081282 -0.000000 0.000000 -0.000000 0.000000 -0.000000 -0.000000 -0.000000 0.000000 0.000000 
